<svg width="84" height="63" viewBox="0 0 84 63" fill="none" xmlns="http://www.w3.org/2000/svg">
<path d="M6.01059 62.4773H19.258V30.305L0.33313 16.1113V56.8325C0.33313 59.9648 2.8782 62.4773 6.01059 62.4773Z" fill="white"/>
<path d="M64.7104 62.4773H77.9579C81.0903 62.4773 83.6353 59.9322 83.6353 56.7998V16.1113L64.7104 30.305" fill="white"/>
<path d="M64.7104 5.70299V30.3053L83.6353 16.1117V8.54172C83.6353 1.52646 75.6086 -2.48692 69.9964 1.72223" fill="white"/>
<path d="M19.2581 30.3035V5.70117L41.9679 22.7336L64.6778 5.70117V30.3035L41.9679 47.3359" fill="white"/>
<path d="M0.33313 8.54143V16.1114L19.258 30.305V5.7027L13.9721 1.72195C8.32726 -2.48721 0.33313 1.49354 0.33313 8.54143Z" fill="white"/>
</svg>
