<svg width="75" height="76" viewBox="0 0 75 76" fill="none" xmlns="http://www.w3.org/2000/svg">
<path fill-rule="evenodd" clip-rule="evenodd" d="M72.8432 33.4913C74.2088 34.8671 75 36.7198 75 38.6871V67.7015C75 71.7675 71.7202 75.0696 67.6881 75.0696H48.8655C44.5249 75.0696 40.9365 71.4567 40.9365 67.0798V52.5834H33.7549V66.9762C33.7549 71.4567 30.1665 75.0696 25.723 75.0696H7.10618C3.17699 75.0696 0 71.8712 0 67.9088V38.6871C0 36.4243 1.02694 34.7332 2.15678 33.5949L32.4992 3.02614C35.2691 0.235594 39.7221 0.233477 42.4945 3.01979C42.4947 3.02 42.4949 3.0202 42.4951 3.02041C42.497 3.02232 42.4989 3.02423 42.5008 3.02614L72.8432 33.4913ZM69.1281 37.2364C69.5395 37.6509 69.7452 38.169 69.7452 38.6871V67.7015C69.7452 68.8414 68.8195 69.774 67.6881 69.774H48.8655C47.4256 69.774 46.1913 68.5305 46.1913 67.0798V50.0856C46.1913 48.5313 44.957 47.2878 43.4142 47.2878H31.3801C29.7344 47.2878 28.5001 48.6349 28.5001 50.1893V66.9762C28.5001 68.5305 27.2659 69.774 25.723 69.774H7.10618C6.07762 69.774 5.25478 68.945 5.25478 67.9088V38.6871C5.25478 38.169 5.46049 37.7545 5.87191 37.34L36.2143 6.77123C36.9343 6.04587 38.0657 6.04587 38.7857 6.77123L69.1281 37.2364Z" fill="#FFA800"/>
</svg>
