<svg width="92" height="92" viewBox="0 0 92 92" fill="none" xmlns="http://www.w3.org/2000/svg">
<rect x="3" y="3" width="86" height="86" rx="7" stroke="white" stroke-width="6"/>
<path d="M41.9755 8.24094L43.0444 6.76094C44.3604 4.93875 46.4714 3.85938 48.7191 3.85938H82C85.866 3.85938 89 6.99338 89 10.8594V15.0131C89 17.6645 87.5019 20.0884 85.1305 21.2741L67.8417 29.9185C64.1287 31.775 59.76 29.075 59.76 24.9237C59.76 21.8396 57.2598 19.3394 54.1756 19.3394H47.6503C41.9399 19.3394 38.6321 12.8702 41.9755 8.24094Z" stroke="white" stroke-width="6"/>
<path d="M10.994 71.3255L6.94308 74.6169C4.59142 76.5276 3.73608 79.7344 4.82381 82.5625L5.57417 84.5135C6.61392 87.2168 9.21119 89.0006 12.1076 89.0006H37.8455C43.113 89.0006 46.4932 83.4018 44.0399 78.7404L43.4564 77.6319C41.9278 74.7275 38.5866 73.2752 35.4202 74.1388L26.6319 76.5356C23.9122 77.2773 21.0547 75.9457 19.8733 73.3862C18.295 69.9665 13.9171 68.9505 10.994 71.3255Z" stroke="white" stroke-width="6"/>
</svg>
