<svg width="84" height="76" viewBox="0 0 84 76" fill="none" xmlns="http://www.w3.org/2000/svg">
<path d="M84 29.2088C84 27.412 83.7163 25.8043 83.2434 24.2912C83.2434 24.0075 83.2434 24.0075 82.9597 23.7238L75.8669 6.1337C74.5429 2.44547 71.1384 0.175781 66.9773 0.175781H17.4225C13.2615 0.175781 10.1406 2.25633 8.81665 5.94456L1.25103 23.9129C1.25103 23.9129 1.25103 24.1966 1.25103 24.4803C0.683613 25.9934 0.399902 27.8849 0.399902 29.6817C0.399902 34.4102 2.19674 38.5713 5.60126 41.6921V68.0772C5.60126 72.2383 9.00579 75.9265 13.4506 75.9265H70.0981C74.2592 75.9265 77.9475 72.522 77.9475 68.0772V42.7324C81.6357 38.855 84 34.1265 84 29.2088ZM70.0981 69.1175H13.4506C12.4103 69.1175 11.8429 68.3609 11.8429 67.5098V44.8129C13.4506 45.3803 15.2474 45.5695 17.328 45.5695C22.2456 45.5695 26.6904 43.4889 29.9058 39.6116C33.0266 43.2998 37.4714 45.3803 42.4836 45.3803C47.4959 45.3803 51.8461 43.2998 55.0615 39.4224C58.1823 43.1107 62.9108 45.3803 67.8285 45.3803C69.4362 45.3803 70.6656 45.0966 71.9895 44.8129V67.3206C71.7058 68.3609 70.9493 69.1175 70.0981 69.1175ZM72.4624 38.2876C71.1384 39.0441 69.3416 39.3278 67.5447 39.3278C63.8565 39.3278 60.452 37.531 58.6551 34.4102C58.3714 34.1265 58.3714 33.6536 57.8986 33.0862C57.3312 32.5188 56.5746 31.7622 55.0615 31.7622C53.7375 31.7622 52.6972 32.3297 52.2244 33.0862C51.657 33.6536 51.657 33.8428 51.4678 34.4102C49.671 37.531 46.2665 39.3278 42.5782 39.3278C38.89 39.3278 35.4855 37.531 33.6886 34.4102C33.4049 34.1265 33.4049 33.6536 32.9321 33.3699C31.6081 31.7622 28.2035 31.7622 27.1633 33.3699C26.5958 33.9373 26.4067 34.4102 26.4067 34.6939C24.6099 37.8147 21.2053 39.6116 17.5171 39.6116C15.7203 39.6116 13.8289 39.3278 12.5995 38.5713C9.19493 36.7744 7.11439 33.0862 7.11439 29.2088C7.11439 28.1686 7.3981 26.8446 7.68181 25.8043V25.5206L15.2474 7.7414C15.5311 7.17398 15.8148 5.94456 18.0845 5.94456H67.5447C68.585 5.94456 70.1927 6.22827 70.6656 7.7414L77.7583 25.2369V25.5206C78.042 26.5609 78.3258 27.8848 78.3258 28.9251C77.9475 32.8025 75.8669 36.4907 72.4624 38.2876Z" fill="#FFA800"/>
</svg>
